<svg width="24" height="24" viewBox="0 0 24 24" fill="none" xmlns="http://www.w3.org/2000/svg">
<g id="Eye">
<g id="XMLID_625_">
<g id="XMLID_567_">
<path id="XMLID_105_" d="M12 19.0312C10.5656 19.0312 9.08439 18.675 7.59376 17.9766C6.42657 17.4281 5.25001 16.6687 4.09689 15.7172C2.15157 14.1094 0.951575 12.5156 0.900012 12.45C0.69845 12.1828 0.69845 11.8172 0.900012 11.55C0.951575 11.4844 2.15157 9.89062 4.09689 8.28281C5.25001 7.33125 6.42657 6.57187 7.59376 6.02344C9.08439 5.325 10.5656 4.96875 12 4.96875C13.4344 4.96875 14.9156 5.325 16.4063 6.02344C17.5734 6.57187 18.75 7.33125 19.9031 8.28281C21.8484 9.89062 23.0531 11.4844 23.1 11.55C23.3016 11.8172 23.3016 12.1828 23.1 12.45C23.0484 12.5156 21.8484 14.1094 19.9031 15.7172C18.75 16.6687 17.5734 17.4281 16.4063 17.9766C14.9156 18.675 13.4344 19.0312 12 19.0312ZM2.46564 12C3.6422 13.3922 7.52814 17.5312 12 17.5312C16.4813 17.5312 20.3578 13.3922 21.5344 12C20.3578 10.6078 16.4719 6.46875 12 6.46875C7.51876 6.46875 3.6422 10.6078 2.46564 12Z" fill="#D1D1D1"/>
</g>
<g id="XMLID_568_">
<path id="XMLID_102_" d="M12 15.375C10.1391 15.375 8.625 13.8609 8.625 12C8.625 10.1391 10.1391 8.625 12 8.625C13.8609 8.625 15.375 10.1391 15.375 12C15.375 13.8609 13.8609 15.375 12 15.375ZM12 10.125C10.9641 10.125 10.125 10.9641 10.125 12C10.125 13.0359 10.9641 13.875 12 13.875C13.0359 13.875 13.875 13.0359 13.875 12C13.875 10.9641 13.0359 10.125 12 10.125Z" fill="#D1D1D1"/>
</g>
</g>
</g>
</svg>
