<svg width="24" height="24" viewBox="0 0 24 24" fill="none" xmlns="http://www.w3.org/2000/svg">
<g id="Time" clip-path="url(#clip0_2381_3524)">
<path id="Path 3565" d="M5.212 18.7889C3.41179 16.9886 2.40045 14.5469 2.40045 12.0009C2.40045 9.45495 3.41179 7.01325 5.212 5.21292C7.01233 3.41271 9.45403 2.40137 12 2.40137C14.546 2.40137 16.9877 3.41271 18.788 5.21292C20.5882 7.01325 21.5996 9.45495 21.5996 12.0009C21.5996 14.5469 20.5882 16.9886 18.788 18.7889C17.8975 19.6816 16.8394 20.3894 15.6745 20.8718C14.5096 21.3543 13.2609 21.6017 12 21.5999C10.7392 21.6016 9.49043 21.3541 8.32553 20.8717C7.16063 20.3893 6.10253 19.6815 5.212 18.7889ZM6.485 6.48892C5.02438 7.95287 4.20409 9.93643 4.20409 12.0044C4.20409 14.0724 5.02438 16.056 6.485 17.5199C7.94883 18.9808 9.93243 19.8012 12.0005 19.8012C14.0686 19.8012 16.0522 18.9808 17.516 17.5199C18.9766 16.056 19.7969 14.0724 19.7969 12.0044C19.7969 9.93643 18.9766 7.95287 17.516 6.48892C16.7928 5.76264 15.9332 5.18652 14.9865 4.79368C14.0399 4.40085 13.0249 4.19906 12 4.19992C10.9755 4.19878 9.96096 4.40005 9.01453 4.79218C8.06809 5.18431 7.20846 5.75957 6.485 6.48492V6.48892ZM13.462 14.7419L11.34 12.6199C11.1576 12.4374 11.0551 12.1899 11.055 11.9319V7.08392C11.055 6.95614 11.0802 6.82962 11.1291 6.71157C11.178 6.59352 11.2496 6.48625 11.34 6.3959C11.4303 6.30555 11.5376 6.23388 11.6557 6.18498C11.7737 6.13608 11.9002 6.11092 12.028 6.11092C12.2861 6.11092 12.5335 6.21343 12.716 6.3959C12.8985 6.57837 13.001 6.82586 13.001 7.08392V11.5249L14.838 13.3619C15.0205 13.5444 15.123 13.7919 15.123 14.0499C15.123 14.308 15.0205 14.5554 14.838 14.7379C14.7478 14.8284 14.6405 14.9002 14.5224 14.9491C14.4044 14.998 14.2778 15.0231 14.15 15.0229C14.0222 15.023 13.8957 14.9979 13.7776 14.949C13.6595 14.9001 13.5523 14.8284 13.462 14.7379V14.7419Z" fill="#D1D1D1"/>
</g>
<defs>
<clipPath id="clip0_2381_3524">
<rect width="24" height="24" fill="white"/>
</clipPath>
</defs>
</svg>
